<svg xmlns="http://www.w3.org/2000/svg" width="18" height="18" viewBox="0 0 18 18">
  <path id="icons8-linkedin" d="M5,3A2,2,0,0,0,3,5V19a2,2,0,0,0,2,2H19a2,2,0,0,0,2-2V5a2,2,0,0,0-2-2ZM5,5H19V19H5ZM7.779,6.316a1.223,1.223,0,0,0-1.371,1.2,1.194,1.194,0,0,0,1.285,1.2,1.222,1.222,0,0,0,1.371-1.2A1.2,1.2,0,0,0,7.779,6.316ZM6.477,10v7H9V10Zm4.605,0v7h2.524V13.174c0-1.139.813-1.3,1.057-1.3s.9.245.9,1.3V17H18V13.174c0-2.2-.976-3.174-2.2-3.174a2.282,2.282,0,0,0-2.2.977V10Z" transform="translate(-3 -3)" fill="#f6f6f6"/>
</svg>
